<svg xmlns="http://www.w3.org/2000/svg" version="1.1" xmlns:xlink="http://www.w3.org/1999/xlink" xmlns:svgjs="http://svgjs.dev/svgjs" width="2000" height="611" viewBox="0 0 2000 611"><g transform="matrix(1,0,0,1,-1.2120634643770245,-0.7645980384443192)"><svg viewBox="0 0 396 121" data-background-color="#ffffff" preserveAspectRatio="xMidYMid meet" height="611" width="2000" xmlns="http://www.w3.org/2000/svg" xmlns:xlink="http://www.w3.org/1999/xlink"><defs></defs><g id="tight-bounds" transform="matrix(1,0,0,1,0.2399885659466463,0.15141794214690663)"><svg viewBox="0 0 395.52 120.69706187138641" height="120.69706187138641" width="395.52"><g><svg viewBox="0 0 613.1523283269064 187.10984149640285" height="120.69706187138641" width="395.52"><g transform="matrix(1,0,0,1,217.63232832690645,67.69673369784172)"><svg viewBox="0 0 395.52 51.71637410071942" height="51.71637410071942" width="395.52"><g><svg viewBox="0 0 395.52 51.71637410071942" height="51.71637410071942" width="395.52"><g><svg viewBox="0 0 395.52 51.71637410071942" height="51.71637410071942" width="395.52"><g transform="matrix(1,0,0,1,0,0)"><svg width="395.52" viewBox="1.2000000476837158 -35.5 271.8499755859375 35.5" height="51.71637410071942" data-palette-color="#8bc53f"><g class="undefined-text-0" data-fill-palette-color="primary" id="text-0"><path d="M1.2-24.51L1.2-24.51Q1.2-26.68 2.03-28.59 2.86-30.49 4.28-31.92 5.71-33.35 7.62-34.18 9.52-35.01 11.69-35.01L11.69-35.01 27.76-35.01 27.76-28 11.69-28Q10.96-28 10.33-27.73 9.69-27.47 9.22-26.99 8.74-26.51 8.47-25.88 8.2-25.24 8.2-24.51L8.2-24.51Q8.2-23.78 8.47-23.13 8.74-22.49 9.22-22.01 9.69-21.53 10.33-21.26 10.96-21 11.69-21L11.69-21 18.7-21Q20.87-21 22.79-20.18 24.71-19.36 26.14-17.93 27.56-16.5 28.38-14.59 29.2-12.67 29.2-10.5L29.2-10.5Q29.2-8.33 28.38-6.42 27.56-4.52 26.14-3.09 24.71-1.66 22.79-0.83 20.87 0 18.7 0L18.7 0 3.15 0 3.15-7.01 18.7-7.01Q19.43-7.01 20.07-7.28 20.7-7.54 21.18-8.02 21.66-8.5 21.92-9.13 22.19-9.77 22.19-10.5L22.19-10.5Q22.19-11.23 21.92-11.87 21.66-12.5 21.18-12.98 20.7-13.45 20.07-13.72 19.43-13.99 18.7-13.99L18.7-13.99 11.69-13.99Q9.52-13.99 7.62-14.82 5.71-15.65 4.28-17.08 2.86-18.51 2.03-20.42 1.2-22.34 1.2-24.51ZM40.79-35.01L40.79 0 33.79 0 33.79-35.01 40.79-35.01ZM82.03-25L82.03 0 75.04 0 75.04-25Q75.04-25.73 74.76-26.37 74.48-27 74.01-27.48 73.53-27.95 72.9-28.22 72.26-28.49 71.53-28.49L71.53-28.49Q70.8-28.49 70.16-28.22 69.53-27.95 69.05-27.48 68.57-27 68.31-26.37 68.04-25.73 68.04-25L68.04-25 68.04 0 61.03 0 61.03-25Q61.03-25.73 60.76-26.37 60.49-27 60.02-27.48 59.54-27.95 58.91-28.22 58.27-28.49 57.54-28.49L57.54-28.49Q56.81-28.49 56.17-28.22 55.54-27.95 55.06-27.48 54.58-27 54.32-26.37 54.05-25.73 54.05-25L54.05-25 54.05 0 47.04 0 47.04-25Q47.04-27.17 47.86-29.09 48.68-31.01 50.1-32.43 51.53-33.86 53.45-34.68 55.37-35.5 57.54-35.5L57.54-35.5Q59.49-35.5 61.3-34.8 63.11-34.11 64.55-32.79L64.55-32.79Q65.99-34.11 67.78-34.8 69.58-35.5 71.53-35.5L71.53-35.5Q73.7-35.5 75.62-34.68 77.53-33.86 78.96-32.43 80.39-31.01 81.21-29.09 82.03-27.17 82.03-25L82.03-25ZM102.97-28L102.97 0 95.99 0 95.99-28 85.47-28 85.47-35.01 113.47-35.01 113.47-28 102.97-28ZM131.19-28L124.18-28 124.18-13.99 131.19-13.99Q132.63-13.99 133.9-14.54 135.17-15.09 136.12-16.04 137.07-16.99 137.62-18.27 138.17-19.56 138.17-21L138.17-21Q138.17-22.44 137.62-23.72 137.07-25 136.12-25.95 135.17-26.9 133.9-27.45 132.63-28 131.19-28L131.19-28ZM124.18-7.01L124.18 0 117.18 0 117.18-35.01 131.19-35.01Q133.12-35.01 134.9-34.51 136.68-34.01 138.23-33.09 139.78-32.18 141.07-30.9 142.35-29.61 143.26-28.05 144.18-26.49 144.68-24.71 145.18-22.92 145.18-21L145.18-21Q145.18-19.19 144.73-17.48 144.28-15.77 143.43-14.23 142.59-12.7 141.37-11.4 140.15-10.11 138.64-9.16L138.64-9.16 142.52 0 135.07 0 132.02-7.06 124.18-7.01ZM156.36-13.99L170.37-13.99 170.37-21Q170.37-22.44 169.82-23.72 169.27-25 168.32-25.95 167.37-26.9 166.09-27.45 164.81-28 163.37-28L163.37-28Q161.93-28 160.64-27.45 159.36-26.9 158.41-25.95 157.46-25 156.91-23.72 156.36-22.44 156.36-21L156.36-21 156.36-13.99ZM177.38-21L177.38 0 170.37 0 170.37-7.01 156.36-7.01 156.36 0 149.38 0 149.38-21Q149.38-23.9 150.48-26.45 151.57-29 153.47-30.91 155.36-32.81 157.91-33.91 160.46-35.01 163.37-35.01L163.37-35.01Q166.27-35.01 168.82-33.91 171.37-32.81 173.28-30.91 175.18-29 176.28-26.45 177.38-23.9 177.38-21L177.38-21ZM211.51-17.5L211.51-17.5Q211.51-15.09 210.89-12.85 210.26-10.62 209.12-8.68 207.97-6.74 206.38-5.14 204.79-3.54 202.84-2.39 200.89-1.25 198.65-0.62 196.42 0 194 0L194 0 183.46 0 183.46-35.01 194-35.01Q196.42-35.01 198.65-34.39 200.89-33.76 202.84-32.62 204.79-31.47 206.38-29.87 207.97-28.27 209.12-26.33 210.26-24.39 210.89-22.16 211.51-19.92 211.51-17.5ZM204.5-17.5L204.5-17.5Q204.5-19.68 203.68-21.58 202.87-23.49 201.44-24.91 200.01-26.34 198.09-27.17 196.18-28 194-28L194-28 190.51-28 190.51-7.01 194-7.01Q196.18-7.01 198.09-7.82 200.01-8.64 201.44-10.07 202.87-11.5 203.68-13.42 204.5-15.33 204.5-17.5ZM240.14-7.01L240.14 0 216.14 0 216.14-35.01 240.14-35.01 240.14-28 223.15-28 223.15-21 234.65-21 234.65-13.99 223.15-13.99 223.15-7.01 240.14-7.01ZM259.06-28L252.06-28 252.06-13.99 259.06-13.99Q260.5-13.99 261.77-14.54 263.04-15.09 263.99-16.04 264.95-16.99 265.5-18.27 266.04-19.56 266.04-21L266.04-21Q266.04-22.44 265.5-23.72 264.95-25 263.99-25.95 263.04-26.9 261.77-27.45 260.5-28 259.06-28L259.06-28ZM252.06-7.01L252.06 0 245.05 0 245.05-35.01 259.06-35.01Q260.99-35.01 262.77-34.51 264.56-34.01 266.11-33.09 267.66-32.18 268.94-30.9 270.22-29.61 271.13-28.05 272.05-26.49 272.55-24.71 273.05-22.92 273.05-21L273.05-21Q273.05-19.19 272.6-17.48 272.15-15.77 271.31-14.23 270.46-12.7 269.24-11.4 268.02-10.11 266.51-9.16L266.51-9.16 270.39 0 262.94 0 259.89-7.06 252.06-7.01Z" fill="#8bc53f" data-fill-palette-color="primary"></path></g></svg></g></svg></g></svg></g></svg></g><g><svg viewBox="0 0 187.10984149640285 187.10984149640285" height="187.10984149640285" width="187.10984149640285"><g><svg viewBox="0 0 187.10984149640285 187.10984149640285" height="187.10984149640285" width="187.10984149640285"><g transform="matrix(1,0,0,1,49.836620558129,49.45270816525259)"><svg viewBox="0 0 87.43660038014485 88.20442516589767" height="88.20442516589767" width="87.43660038014485"><g><svg xmlns="http://www.w3.org/2000/svg" xmlns:xlink="http://www.w3.org/1999/xlink" version="1.1" x="0" y="0" viewBox="0.20867180824279785 0 47.582157135009766 48" enable-background="new 0 0 48 48" xml:space="preserve" height="88.20442516589767" width="87.43660038014485" class="icon-x-0" data-fill-palette-color="accent" id="x-0"><g fill="#5d9943" data-fill-palette-color="accent"><path d="M46.912 26.624c-0.529-0.08-1.035 0.282-1.119 0.817-1.688 10.777-10.846 18.6-21.774 18.6-11.051 0-20.448-8.252-21.858-19.194C2.091 26.311 1.593 25.938 1.063 26c-0.537 0.07-0.916 0.561-0.846 1.098C1.753 39.015 11.986 48 24.019 48c11.9 0 21.872-8.519 23.71-20.257C47.813 27.21 47.447 26.708 46.912 26.624z" fill="#5d9943" data-fill-palette-color="accent"></path><path d="M1.064 21.985c0.042 0.005 0.085 0.008 0.127 0.008 0.484 0 0.906-0.359 0.97-0.854C3.579 10.204 12.975 1.959 24.019 1.959c10.914 0 20.296 8.136 21.823 18.923 0.076 0.536 0.578 0.912 1.107 0.833 0.535-0.076 0.908-0.572 0.832-1.108C46.117 8.859 35.902 0 24.019 0 11.994 0 1.762 8.979 0.219 20.887 0.149 21.424 0.527 21.915 1.064 21.985z" fill="#5d9943" data-fill-palette-color="accent"></path><path d="M24.019 14.224c-5.391 0-9.776 4.386-9.776 9.776s4.386 9.776 9.776 9.776c5.392 0 9.776-4.386 9.776-9.776S29.41 14.224 24.019 14.224zM24.514 29.231v1.775h-1.075v-1.725c-0.989-0.017-2.013-0.323-2.612-0.752l0.41-1.143c0.615 0.41 1.502 0.733 2.458 0.733 1.212 0 2.032-0.699 2.032-1.671 0-0.939-0.666-1.521-1.93-2.032-1.74-0.684-2.815-1.469-2.815-2.953 0-1.417 1.006-2.493 2.577-2.748v-1.726h1.058v1.656c1.024 0.035 1.724 0.309 2.22 0.598l-0.428 1.127c-0.357-0.204-1.057-0.58-2.15-0.58-1.313 0-1.809 0.786-1.809 1.468 0 0.888 0.631 1.331 2.117 1.946 1.757 0.718 2.645 1.604 2.645 3.123C27.211 27.679 26.272 28.941 24.514 29.231z" fill="#5d9943" data-fill-palette-color="accent"></path><path d="M24.019 7.435C14.885 7.435 7.454 14.866 7.454 24s7.431 16.565 16.565 16.565S40.583 33.134 40.583 24 33.152 7.435 24.019 7.435zM24.019 35.736c-6.472 0-11.735-5.265-11.735-11.736s5.264-11.736 11.735-11.736S35.755 17.528 35.755 24 30.49 35.736 24.019 35.736z" fill="#5d9943" data-fill-palette-color="accent"></path></g></svg></g></svg></g><path d="M6.054 70.946v0c-0.574-0.195-1.079-0.489-1.514-0.883-0.43-0.392-0.768-0.845-1.016-1.358-0.25-0.507-0.4-1.05-0.449-1.629-0.047-0.586 0.027-1.166 0.221-1.74v0l2.178-6.413 2.791 0.948-2.178 6.413c-0.066 0.195-0.094 0.39-0.083 0.584 0.02 0.19 0.072 0.369 0.155 0.538 0.083 0.169 0.197 0.32 0.342 0.453 0.147 0.127 0.315 0.223 0.504 0.288v0c0.195 0.066 0.393 0.095 0.593 0.085 0.196-0.018 0.378-0.068 0.548-0.152 0.169-0.083 0.316-0.195 0.441-0.335 0.133-0.145 0.233-0.315 0.3-0.51v0l0.95-2.8c0.195-0.574 0.486-1.08 0.875-1.518 0.394-0.436 0.845-0.779 1.351-1.028 0.507-0.25 1.053-0.398 1.639-0.446 0.584-0.041 1.162 0.036 1.736 0.231v0c0.58 0.197 1.086 0.488 1.518 0.874 0.436 0.394 0.779 0.845 1.028 1.351 0.25 0.507 0.398 1.053 0.446 1.639 0.047 0.586-0.027 1.166-0.221 1.74v0l-2.107 6.205-2.791-0.948 2.107-6.205c0.064-0.189 0.087-0.382 0.07-0.578-0.012-0.194-0.059-0.375-0.142-0.544-0.083-0.169-0.198-0.317-0.345-0.444-0.145-0.133-0.315-0.233-0.51-0.3v0c-0.195-0.066-0.388-0.09-0.578-0.069-0.194 0.012-0.375 0.059-0.544 0.142-0.169 0.083-0.32 0.197-0.454 0.342-0.127 0.147-0.223 0.315-0.287 0.503v0l-0.951 2.8c-0.195 0.574-0.489 1.079-0.884 1.515-0.392 0.43-0.841 0.769-1.348 1.019-0.509 0.256-1.056 0.408-1.642 0.455-0.586 0.047-1.169-0.028-1.749-0.225zM15.796 39.996l12.29 8.146-1.628 2.456-12.29-8.146zM42.461 19.566l6.707 8.116-2.272 1.878-6.707-8.117c-0.132-0.159-0.283-0.285-0.454-0.376-0.176-0.088-0.358-0.14-0.545-0.159-0.188-0.018-0.374 0.002-0.559 0.061-0.185 0.058-0.357 0.153-0.517 0.284v0c-0.159 0.132-0.282 0.281-0.369 0.448-0.092 0.171-0.147 0.35-0.165 0.537-0.018 0.188 0 0.376 0.053 0.566 0.058 0.185 0.153 0.357 0.285 0.517v0l6.707 8.116-2.272 1.877-6.707-8.116c-0.132-0.159-0.285-0.283-0.462-0.37-0.171-0.092-0.35-0.147-0.537-0.165-0.188-0.018-0.374 0.002-0.56 0.06-0.185 0.058-0.357 0.153-0.516 0.285v0c-0.159 0.132-0.282 0.281-0.369 0.447-0.092 0.171-0.147 0.35-0.165 0.538-0.018 0.188 0 0.376 0.053 0.566 0.058 0.185 0.153 0.357 0.284 0.516v0l6.707 8.116-2.271 1.878-6.707-8.117c-0.39-0.472-0.67-0.988-0.839-1.548-0.16-0.559-0.215-1.123-0.166-1.69 0.053-0.563 0.216-1.103 0.487-1.622 0.267-0.523 0.635-0.978 1.102-1.364v0c0.426-0.352 0.896-0.615 1.409-0.788 0.517-0.168 1.049-0.241 1.596-0.217v0c0.08-0.541 0.249-1.048 0.506-1.52 0.267-0.471 0.611-0.881 1.033-1.229v0c0.472-0.39 0.991-0.667 1.554-0.832 0.555-0.165 1.116-0.223 1.684-0.173 0.567 0.059 1.107 0.221 1.622 0.488 0.523 0.267 0.98 0.637 1.37 1.109zM63.655 7.886l4.035 11.087-2.769 1.008-4.035-11.087-4.159 1.514-1.007-2.77 11.077-4.031 1.008 2.769zM90.58 2.951l-2.954 0.139 0.279 5.897 2.954-0.139c0.406-0.019 0.781-0.114 1.126-0.283 0.352-0.17 0.655-0.394 0.909-0.673 0.253-0.285 0.448-0.611 0.583-0.978 0.136-0.366 0.195-0.749 0.176-1.149v0c-0.019-0.406-0.114-0.785-0.284-1.136-0.17-0.352-0.394-0.655-0.673-0.908-0.279-0.254-0.601-0.452-0.968-0.595-0.36-0.136-0.743-0.195-1.148-0.175zM88.044 11.931l0.139 2.944-2.943 0.139-0.697-14.728 5.898-0.279c0.539-0.025 1.061 0.02 1.566 0.136 0.506 0.116 0.984 0.294 1.436 0.532 0.444 0.232 0.855 0.52 1.23 0.862 0.376 0.342 0.704 0.727 0.985 1.153 0.28 0.427 0.502 0.886 0.665 1.379 0.163 0.492 0.258 1.011 0.284 1.557v0c0.024 0.506-0.016 1.001-0.12 1.486-0.104 0.485-0.265 0.949-0.484 1.393-0.212 0.443-0.483 0.853-0.812 1.228-0.322 0.382-0.69 0.716-1.103 1.002v0l1.819 3.775-3.134 0.148-1.427-2.913zM115.042 11.52l5.687 1.588 0.792-2.838c0.109-0.391 0.139-0.781 0.088-1.168-0.057-0.389-0.178-0.748-0.363-1.077-0.185-0.328-0.429-0.618-0.733-0.868-0.305-0.244-0.653-0.421-1.044-0.53v0c-0.385-0.107-0.771-0.136-1.159-0.086-0.389 0.057-0.751 0.177-1.086 0.361-0.328 0.185-0.614 0.43-0.859 0.735-0.244 0.305-0.421 0.653-0.53 1.045v0zM124.36 11.062l-2.378 8.515-2.839-0.792 0.793-2.839-5.686-1.588-0.793 2.839-2.838-0.793 2.378-8.515c0.22-0.789 0.577-1.485 1.07-2.087 0.489-0.61 1.061-1.1 1.717-1.47 0.658-0.376 1.372-0.616 2.141-0.719 0.775-0.102 1.554-0.043 2.336 0.175v0c0.789 0.22 1.485 0.574 2.09 1.061 0.61 0.489 1.1 1.064 1.467 1.727 0.376 0.658 0.615 1.375 0.717 2.15 0.103 0.769 0.045 1.548-0.175 2.336zM148.867 26.615v0c-0.382 0.562-0.821 1.053-1.316 1.473-0.501 0.416-1.037 0.761-1.608 1.032-0.571 0.272-1.167 0.467-1.787 0.585-0.624 0.123-1.254 0.162-1.891 0.115-0.631-0.043-1.256-0.166-1.875-0.369-0.615-0.209-1.203-0.504-1.765-0.887v0l-3.676-2.5 8.294-12.192 3.675 2.501c0.562 0.382 1.053 0.821 1.473 1.316 0.42 0.495 0.764 1.031 1.033 1.608 0.277 0.575 0.475 1.173 0.592 1.793 0.114 0.625 0.15 1.254 0.107 1.885-0.043 0.631-0.166 1.256-0.369 1.875-0.209 0.615-0.504 1.203-0.887 1.765zM146.423 24.952v0c0.345-0.507 0.573-1.044 0.685-1.612 0.107-0.572 0.109-1.138 0.008-1.698-0.106-0.555-0.316-1.081-0.631-1.577-0.315-0.496-0.723-0.915-1.224-1.256v0l-1.223-0.831-4.978 7.318 1.223 0.832c0.501 0.341 1.04 0.567 1.617 0.677 0.573 0.116 1.14 0.119 1.698 0.007 0.555-0.106 1.081-0.316 1.577-0.63 0.491-0.319 0.906-0.729 1.248-1.23zM163.114 48.779l-2.322 1.813-6.222-7.968 11.622-9.074 6.221 7.968-2.323 1.814-4.408-5.646-2.33 1.82 2.982 3.819-2.323 1.813-2.982-3.818-2.323 1.813zM180.438 64.544l-1.019-2.776-5.542 2.034 1.018 2.776c0.14 0.381 0.343 0.711 0.609 0.99 0.268 0.285 0.572 0.506 0.914 0.665 0.348 0.156 0.717 0.244 1.108 0.264 0.39 0.02 0.773-0.039 1.148-0.177v0c0.381-0.14 0.714-0.344 0.999-0.612 0.285-0.268 0.506-0.572 0.665-0.914 0.158-0.342 0.251-0.709 0.277-1.102 0.022-0.384-0.037-0.767-0.177-1.148zM171.11 64.818l-2.766 1.015-1.016-2.767 13.842-5.08 2.034 5.543c0.186 0.506 0.299 1.018 0.34 1.535 0.041 0.517 0.015 1.027-0.077 1.529-0.088 0.494-0.239 0.971-0.453 1.432-0.214 0.462-0.482 0.89-0.805 1.285-0.323 0.395-0.695 0.745-1.116 1.048-0.421 0.303-0.887 0.549-1.4 0.738v0c-0.475 0.174-0.96 0.285-1.454 0.331-0.494 0.046-0.985 0.032-1.474-0.044-0.487-0.07-0.959-0.205-1.415-0.407-0.461-0.193-0.89-0.443-1.287-0.751v0l-3.055 2.867-1.081-2.945 2.351-2.236zM15.127 116.528v0c0.574-0.195 1.154-0.269 1.74-0.222 0.579 0.049 1.124 0.202 1.632 0.459 0.507 0.25 0.956 0.59 1.349 1.019 0.394 0.436 0.689 0.941 0.883 1.514v0l2.178 6.414-2.79 0.947-2.178-6.413c-0.066-0.195-0.162-0.363-0.287-0.504-0.133-0.145-0.285-0.258-0.454-0.342-0.169-0.083-0.351-0.134-0.547-0.152-0.188-0.014-0.379 0.013-0.575 0.08v0c-0.195 0.066-0.367 0.163-0.513 0.29-0.151 0.136-0.268 0.288-0.351 0.457-0.083 0.169-0.131 0.35-0.143 0.544-0.02 0.19 0.003 0.382 0.07 0.578v0l0.951 2.8c0.195 0.574 0.272 1.153 0.231 1.736-0.047 0.586-0.196 1.132-0.446 1.639-0.25 0.507-0.593 0.957-1.029 1.351-0.438 0.388-0.944 0.679-1.517 0.874v0c-0.58 0.197-1.159 0.274-1.737 0.231-0.586-0.047-1.132-0.196-1.639-0.446-0.507-0.25-0.957-0.593-1.351-1.028-0.394-0.436-0.689-0.941-0.884-1.515v0l-2.107-6.205 2.791-0.947 2.107 6.205c0.066 0.195 0.165 0.362 0.296 0.5 0.127 0.147 0.275 0.262 0.445 0.345 0.169 0.083 0.351 0.134 0.547 0.152 0.194 0.012 0.388-0.016 0.584-0.082v0c0.195-0.066 0.363-0.162 0.504-0.287 0.145-0.133 0.258-0.285 0.342-0.454 0.083-0.169 0.134-0.351 0.151-0.547 0.014-0.188-0.013-0.379-0.079-0.575v0l-0.951-2.8c-0.195-0.574-0.269-1.154-0.221-1.739 0.049-0.579 0.199-1.123 0.449-1.63 0.248-0.513 0.59-0.967 1.025-1.361 0.436-0.394 0.944-0.69 1.524-0.886zM31.143 140.387l-12.29 8.146-1.628-2.457 12.29-8.146zM48.819 163.294l-6.708 8.117-2.264-1.871 6.708-8.117c0.132-0.159 0.224-0.333 0.276-0.523 0.053-0.19 0.07-0.378 0.053-0.565-0.018-0.188-0.073-0.367-0.165-0.538-0.088-0.176-0.211-0.33-0.37-0.461v0c-0.159-0.132-0.331-0.222-0.515-0.271-0.185-0.058-0.372-0.078-0.559-0.06-0.188 0.018-0.369 0.071-0.546 0.158-0.171 0.092-0.322 0.217-0.454 0.377v0l-6.707 8.116-2.272-1.877 6.708-8.116c0.132-0.159 0.224-0.333 0.276-0.523 0.058-0.185 0.078-0.372 0.061-0.56-0.018-0.188-0.073-0.367-0.165-0.537-0.088-0.176-0.211-0.33-0.37-0.462v0c-0.159-0.132-0.331-0.222-0.515-0.27-0.185-0.058-0.372-0.078-0.56-0.061-0.188 0.018-0.369 0.071-0.545 0.159-0.171 0.092-0.322 0.217-0.454 0.376v0l-6.707 8.117-2.272-1.878 6.707-8.116c0.39-0.472 0.845-0.844 1.363-1.116 0.523-0.267 1.066-0.428 1.629-0.481 0.563-0.053 1.126 0.002 1.69 0.166 0.56 0.169 1.074 0.447 1.541 0.832v0c0.426 0.352 0.773 0.764 1.04 1.236 0.263 0.476 0.434 0.985 0.514 1.526v0c0.546-0.024 1.076 0.047 1.588 0.211 0.513 0.174 0.98 0.434 1.401 0.782v0c0.472 0.39 0.844 0.845 1.116 1.363 0.267 0.523 0.428 1.066 0.481 1.629 0.053 0.563-0.002 1.126-0.165 1.69-0.169 0.56-0.449 1.076-0.839 1.548zM67.936 170.905l-4.035 11.086-2.769-1.008 4.035-11.086-4.159-1.514 1.008-2.769 11.077 4.031-1.008 2.77zM91.17 175.1l-2.953-0.14-0.279 5.897 2.953 0.14c0.406 0.019 0.789-0.039 1.149-0.176 0.366-0.136 0.689-0.331 0.968-0.584 0.279-0.26 0.503-0.566 0.673-0.918 0.17-0.352 0.264-0.728 0.283-1.127v0c0.019-0.406-0.039-0.792-0.175-1.158-0.136-0.366-0.331-0.689-0.584-0.968-0.253-0.285-0.556-0.513-0.908-0.683-0.345-0.17-0.721-0.264-1.127-0.283zM87.799 183.801l-0.14 2.944-2.943-0.14 0.696-14.728 5.897 0.279c0.539 0.025 1.054 0.12 1.547 0.283 0.499 0.164 0.959 0.382 1.379 0.655 0.42 0.28 0.801 0.608 1.144 0.985 0.342 0.376 0.633 0.79 0.871 1.241 0.239 0.451 0.416 0.93 0.532 1.435 0.116 0.506 0.161 1.031 0.136 1.577v0c-0.024 0.506-0.11 0.995-0.259 1.468-0.149 0.473-0.354 0.92-0.614 1.341-0.253 0.421-0.561 0.804-0.924 1.146-0.357 0.35-0.754 0.648-1.193 0.894v0l1.455 3.929-3.133-0.148-1.147-3.035zM114.85 178.35l5.687-1.588-0.793-2.838c-0.109-0.391-0.286-0.74-0.53-1.045-0.244-0.305-0.534-0.549-0.869-0.732-0.33-0.191-0.689-0.312-1.076-0.363-0.388-0.051-0.777-0.022-1.168 0.087v0c-0.385 0.107-0.73 0.283-1.035 0.528-0.305 0.244-0.553 0.535-0.742 0.871-0.185 0.328-0.303 0.686-0.354 1.074-0.051 0.388-0.022 0.777 0.088 1.168v0zM122.582 173.131l2.378 8.515-2.838 0.793-0.793-2.838-5.686 1.588 0.793 2.838-2.839 0.793-2.378-8.515c-0.22-0.789-0.276-1.572-0.168-2.349 0.103-0.769 0.34-1.481 0.71-2.138 0.368-0.663 0.854-1.238 1.458-1.724 0.61-0.489 1.307-0.842 2.089-1.061v0c0.789-0.22 1.571-0.28 2.346-0.178 0.769 0.103 1.482 0.343 2.141 0.719 0.663 0.368 1.238 0.854 1.724 1.458 0.489 0.61 0.843 1.31 1.063 2.099zM146.803 160.908v0c0.382 0.562 0.678 1.15 0.887 1.765 0.203 0.619 0.327 1.244 0.369 1.875 0.043 0.631 0.005 1.257-0.112 1.877-0.114 0.625-0.31 1.226-0.587 1.801-0.272 0.571-0.616 1.108-1.033 1.608-0.42 0.495-0.911 0.934-1.473 1.316v0l-3.675 2.5-8.293-12.191 3.675-2.5c0.562-0.382 1.15-0.678 1.765-0.887 0.615-0.209 1.238-0.335 1.87-0.378 0.641-0.041 1.271-0.003 1.89 0.116 0.624 0.123 1.221 0.321 1.793 0.593 0.568 0.266 1.104 0.61 1.608 1.032 0.495 0.42 0.934 0.911 1.316 1.473zM144.359 162.571v0c-0.345-0.507-0.76-0.916-1.248-1.23-0.492-0.309-1.018-0.52-1.577-0.631-0.555-0.106-1.121-0.103-1.698 0.008-0.577 0.111-1.116 0.336-1.617 0.677v0l-1.223 0.832 4.978 7.318 1.223-0.832c0.501-0.341 0.909-0.759 1.224-1.255 0.319-0.491 0.529-1.016 0.631-1.577 0.106-0.555 0.103-1.121-0.008-1.698-0.116-0.573-0.345-1.111-0.685-1.612zM167.199 144.967l2.322 1.814-6.221 7.968-11.622-9.075 6.222-7.968 2.323 1.814-4.408 5.645 2.33 1.82 2.982-3.819 2.323 1.814-2.982 3.819 2.323 1.813zM168.685 121.699l-1.019 2.776 5.543 2.034 1.018-2.776c0.14-0.381 0.199-0.764 0.177-1.148-0.02-0.39-0.109-0.757-0.267-1.099-0.165-0.344-0.389-0.65-0.674-0.917-0.285-0.268-0.615-0.47-0.99-0.608v0c-0.381-0.14-0.767-0.2-1.158-0.181-0.39 0.02-0.757 0.109-1.098 0.268-0.348 0.156-0.656 0.376-0.924 0.661-0.265 0.279-0.468 0.609-0.608 0.99zM175.975 127.524l2.767 1.016-1.016 2.766-13.842-5.08 2.035-5.543c0.186-0.506 0.43-0.97 0.733-1.39 0.306-0.427 0.652-0.8 1.039-1.119 0.393-0.317 0.82-0.582 1.282-0.796 0.462-0.214 0.943-0.367 1.445-0.459 0.502-0.092 1.012-0.118 1.529-0.078 0.517 0.041 1.032 0.155 1.545 0.344v0c0.475 0.174 0.916 0.404 1.322 0.687 0.407 0.284 0.772 0.613 1.096 0.988 0.326 0.368 0.598 0.776 0.816 1.225 0.227 0.445 0.392 0.914 0.495 1.406v0l4.185-0.21-1.081 2.945-3.239 0.184zM1.86 95.278c0-3.155 2.558-5.713 5.713-5.713 3.155 0 5.713 2.558 5.712 5.713 0 3.155-2.558 5.713-5.712 5.712-3.155 0-5.713-2.558-5.713-5.712zM173.824 95.278c0-3.155 2.558-5.713 5.713-5.713 3.155 0 5.713 2.558 5.713 5.713 0 3.155-2.558 5.713-5.713 5.712-3.155 0-5.713-2.558-5.713-5.712z" fill="#5d9943" data-fill-palette-color="accent"></path></svg></g></svg></g></svg></g></svg><rect width="395.52" height="120.69706187138641" fill="none" stroke="none" visibility="hidden"></rect></g></svg></g></svg>